<?xml version="1.0" encoding="utf-8"?>
<!-- Generator: Adobe Illustrator 28.0.0, SVG Export Plug-In . SVG Version: 6.00 Build 0)  -->
<svg version="1.1" id="Layer_1" xmlns="http://www.w3.org/2000/svg" xmlns:xlink="http://www.w3.org/1999/xlink" x="0px" y="0px"
	 viewBox="0 0 52.2 44.3" style="enable-background:new 0 0 52.2 44.3;" xml:space="preserve">
<style type="text/css">
	.st0{fill:#10BEAE;}
</style>
<g transform="translate(0.000000,600.000000) scale(0.100000,-0.100000)">
	<path class="st0" d="M469.5,5665.7c-23.7-2.4-111.9-1.8-151.9,1c-9.3,0.6-9.6,0.7-9.6,3.2c0,8.1-6.9,40.5-10.5,49.2
		c-0.7,1.7-0.4,1.9,1.3,1.2c4.6-1.7,33.5-5.7,49.3-6.9c40.5-3,73.4,5.9,82.2,22.2c14.8,27.6,16.1,79.4,2.8,115.1
		c-1.7,4.8-2.9,8.9-2.6,9.2c0.5,0.5,21.3-9.3,30.5-14.4c2.9-1.7,5.4-2.8,5.7-2.7c0.2,0.2-2.9,5.4-7,11.5
		c-39.5,59.5-112.5,105-189.3,118c-13.7,2.3-42.1,2.9-55,1.1c-20.3-2.8-36.5-7.6-56.6-16.8c-8-3.6-14.4-6.8-14.1-7
		c0.2-0.2,5.6,0.9,12,2.6c25.6,6.5,58,7.9,83.7,3.6c9.3-1.6,41.9-11.1,46.7-13.5c0.4-0.1,0.7-0.2,1.1-0.4c2.4-1.2,3.7-4.9,2-7.1
		c-2.8-3.5-5.5-6.5-10.2-7.7c-0.8-0.2-1.6-0.2-2.3-0.1c-0.4-0.2-0.7-0.4-1.2-0.5c-0.5-0.1-0.9-0.2-1.4-0.2c-0.4-0.1-0.7-0.2-1.1-0.2
		c-2-0.2-4-0.7-6-1.3c1-0.1,2-0.1,3-0.2c-1,0.1-2.1,0.1-3.2,0.2c-2.7-0.9-5.4-2-8.2-2.9c-4.1-1.3-8.4-2.1-12.7-2.7
		c-8.3-1.2-16.8-4.1-25.3-3.9c-1.8,0-3.2,0.7-4.1,1.8c-0.4-3.1-0.2-6.4-1-9.4c-4.8-20.5-30.5-30.7-51.1-31.6
		c0.5-2.3,1.6-4.4,2.3-6.6c0.8-2.5,1.3-5.1,1.6-7.7c0.7-6.1-0.1-12.3-1.8-18.3c-0.5-2-2.1-3.1-3.8-3.5c-0.7-2.9-1.6-5.7-2.6-7.9
		c-1.4-3.1,10.1-12.3,34.9-27.8c15.2-9.5,14.4-9.1,26.7-15c5.7-2.7,10.6-5.1,10.8-5.2c4.8-2.9-33.4,6.4-51.9,12.5
		c-8,2.6-20.7,7.3-28.3,10.5c-7.6,3.2-14.8,5.9-15.8,5.9c-1,0.1-1.5,0.5-1.3,0.9c0.3,0.4,0.2,0.8-0.3,0.8c-0.4,0-1.5,0.4-2.4,0.9
		c-1.3,0.8-0.9,1.8,2.4,5.2c7.4,7.7,8.9,11.8,8.9,23.4c0,9.7-0.2,10.6-3.3,15.5c-3.3,5-12.2,11.8-15.5,11.8c-1.2,0-0.8-0.9,1.3-3.2
		c5.4-6.2,7.5-11.3,7.4-18.5c0-8.2-2-12.8-7.8-18.9c-9.2-9.4-23.2-11.7-32.7-5.5c-5,3.4-9.8,11.5-10,17l-0.1,3.7l-1-3.6
		c-0.4-2.1-0.4-6.3,0.1-9.7s0.9-6.3,0.8-6.5c-0.2-0.1-4.4,3.1-9.4,7.1l-9.2,7.3l0.8-4c0.4-2.2,2.7-7.9,5.1-12.5
		c3.4-6.7,6.3-10.4,13.3-17c9.6-9.2,27.5-21.2,43.6-29.2c5.2-2.7,9.5-5.2,9.5-5.6s-3.1-6.5-6.6-13.5c-6.6-12.4-8.5-18.9-7.1-24.1
		c0.9-3.4,12.8-18.6,13.7-17.6c0.4,0.4,2.1,4.4,3.7,8.8c3.7,9.8,5.8,12.3,12.1,15.2c16,7.1,46.6,3.7,71.9-8.1
		c12.8-6,21.6-13,26.2-20.9c3.3-5.5,3.3-5.8,3.3-21.8c0-8.9-0.3-16.5-0.9-16.9c-1.4-1.3-56.1,7.2-66.7,10.4l-2.2,0.7l2.2-1.8
		c3.6-2.9,18.9-9.8,32-14.7c33.4-12.2,79.3-21.5,125.7-25.3c19-1.7,16.7-2.1-20.4-4c-27.2-1.3-55.3-0.4-82.3,2.7
		c-43.9,5.2-83.1,17.9-108.6,35.2c-4.5,3-8.1,5.1-8.1,4.4c0-1.5,4.3-9.1,8-14.3c14.2-19.6,38.7-37,66.7-47.2
		c8.5-3.1,6.9-3.1-6.5,0.2c-25.3,6-49,15.5-66.5,26.3c-28.4,17.8-45.7,46.7-40.9,68.7c2.4,10.7,8.1,19.9,15.7,25.3
		c5.2,3.6,4.3,3.7-4.4,0.6c-29.6-11.1-41.6-38.6-29.6-67.9c2.9-7.2,10-17.6,16.7-24.6c9.6-10,30.1-24,48-32.5
		c4.3-2,8.8-4.9,10.4-6.4c7.8-8.1,29.4-19.2,44.7-23.1c18.4-4.6,45.2-5.4,62.1-1.7c3.9,0.9,14.7,2.1,24,2.6c9.3,0.6,23,2,30.4,3.1
		c22.8,3.5,40.7,8.3,31.1,8.3c-6.2,0-40.1,7-42.7,8.9c-0.2,0.1,0.9,2.1,2.5,4.3l2.8,4l23.1,0.6c42.3,1,79,9.1,114,25.1
		c13.6,6.2,38.1,20.6,40,23.3C475.9,5666,474.4,5666.1,469.5,5665.7z M276.8,5837.2c-8.1-5.1-19.8-8.8-29.5-7.1
		c-0.6-0.2-1.2-0.3-1.9-0.3c-4,0-8,0.5-11.2,2.3l0.3-0.3l-3.5,2.4c-1.3,0.9-2.6,1.9-3.9,3.2c-0.4,0.3-0.8,0.7-1.1,1.1
		c-3.5,3.6-6.8,8.3-9.1,13c-2.7,5.4-3.1,7.3-3.1,15.9c0,9,0.3,10.4,3.7,17.2c2.5,5.1,5.6,9.2,9.4,12.6c9.9,9,17.5,11.6,31.7,11.1
		c5-0.2,8.1-0.5,11-1.2c8-0.9,15.1-3.4,19.2-10.5l0.7-0.6c1.4-0.5,2.7-1.5,3.5-3.3C301.7,5872.9,296.2,5849.4,276.8,5837.2z"/>
	<path class="st0" d="M202.1,5929.4c-1.9,5.5-6.7,10.9-12,13.4c-5.4,2.7-6.2,2.6-3.4-0.2c1.2-1.3,3.3-4.4,4.5-7
		c8.1-16.9-6.3-37.1-26.5-37.2c-11.7,0-18.4,4.8-22.8,16l-2,5.2l0.4-7.9c0.3-6.3,1-8.9,3.4-12.7c3.4-5.6,10-10.4,16-12
		c0.8-0.2,1.6-0.5,2.3-0.8c8.5-0.1,17.6,1.7,25.5,5.2c0.3,0.3,0.8,0.6,1.2,0.8c12,6,13.3,24.1,13.5,35.6
		C202.2,5928.4,202.2,5928.9,202.1,5929.4z"/>
</g>
</svg>
