<?xml version="1.0" encoding="utf-8"?>
<!-- Generator: Adobe Illustrator 28.0.0, SVG Export Plug-In . SVG Version: 6.00 Build 0)  -->
<svg version="1.1" id="Layer_1" xmlns="http://www.w3.org/2000/svg" xmlns:xlink="http://www.w3.org/1999/xlink" x="0px" y="0px"
	 viewBox="0 0 154.3 45.4" style="enable-background:new 0 0 154.3 45.4;" xml:space="preserve">
<style type="text/css">
	.st0{fill:#110505;}
	.st1{font-family:'Roboto-Regular';}
	.st2{font-size:31.6568px;}
	.st3{fill:#10BEAE;}
</style>
<text transform="matrix(0.5708 0 0 1 48.9646 34.8494)" class="st0 st1 st2">MUSHROOM</text>
<g transform="translate(0.000000,600.000000) scale(0.100000,-0.100000)">
	<path class="st3" d="M466.9,5653.1c-24.2-2.5-114.4-1.9-155.2,1.1c-9.5,0.7-9.8,0.8-9.8,3.4c0,8.6-7,43-10.7,52.3
		c-0.7,1.8-0.4,2,1.3,1.3c4.7-1.8,34.2-6,50.3-7.4c41.4-3.2,75,6.3,84,23.6c15.1,29.3,16.5,84.4,2.9,122.3c-1.8,5-3,9.4-2.7,9.8
		c0.6,0.5,21.7-9.9,31.2-15.3c3-1.8,5.6-3,5.8-2.9c0.2,0.2-3,5.7-7.1,12.2c-40.3,63.2-114.9,111.6-193.4,125.4
		c-14,2.4-43,3.1-56.2,1.2c-20.7-3-37.3-8.1-57.8-17.9c-8.1-3.8-14.7-7.2-14.4-7.5c0.2-0.2,5.7,1,12.3,2.7
		c26.2,6.9,59.2,8.3,85.5,3.8c9.6-1.7,42.8-11.8,47.7-14.4c0.4-0.1,0.8-0.3,1.1-0.5c2.5-1.3,3.8-5.2,2-7.5
		c-2.8-3.7-5.6-6.9-10.4-8.2c-0.8-0.2-1.6-0.2-2.3-0.1c-0.4-0.2-0.8-0.4-1.2-0.5c-0.5-0.2-1-0.2-1.4-0.2c-0.4-0.1-0.7-0.2-1.1-0.2
		c-2.1-0.2-4.1-0.7-6.1-1.4c1-0.1,2.1-0.2,3.1-0.2c-1.1,0.1-2.1,0.1-3.2,0.2c-2.8-0.9-5.5-2.1-8.3-3.1c-4.2-1.4-8.6-2.2-12.9-2.9
		c-8.5-1.3-17.1-4.4-25.8-4.2c-1.8,0-3.2,0.8-4.2,1.9c-0.4-3.3-0.3-6.8-1-10c-4.9-21.8-31.1-32.6-52.3-33.5c0.5-2.4,1.7-4.6,2.4-7
		c0.8-2.7,1.3-5.4,1.6-8.2c0.7-6.5-0.2-13.1-1.8-19.4c-0.6-2.1-2.1-3.3-3.9-3.7c-0.7-3-1.6-6-2.7-8.4c-1.4-3.3,10.4-13.1,35.6-29.5
		c15.5-10.1,14.7-9.7,27.3-15.9c5.8-2.9,10.8-5.4,11-5.5c4.9-3.1-34.1,6.8-53,13.3c-8.1,2.7-21.2,7.8-29,11.2
		c-7.8,3.4-15.1,6.3-16.1,6.3c-1,0.1-1.6,0.5-1.3,1c0.3,0.4,0.2,0.9-0.3,0.9c-0.4,0-1.6,0.4-2.5,1c-1.3,0.9-0.9,1.9,2.5,5.5
		c7.6,8.2,9.1,12.5,9.1,24.9c0,10.3-0.2,11.3-3.3,16.5c-3.3,5.3-12.5,12.5-15.8,12.5c-1.2,0-0.8-1,1.3-3.4c5.6-6.6,7.7-12,7.6-19.7
		c0-8.7-2-13.6-8-20.1c-9.4-10-23.7-12.4-33.4-5.8c-5.1,3.6-10,12.2-10.2,18.1l-0.1,4l-1-3.8c-0.4-2.2-0.4-6.7,0.1-10.3
		c0.6-3.6,0.9-6.7,0.8-6.9c-0.2-0.1-4.5,3.3-9.6,7.6l-9.4,7.8l0.8-4.3c0.4-2.3,2.8-8.3,5.2-13.3c3.5-7.1,6.5-11.1,13.6-18.1
		c9.8-9.8,28.1-22.5,44.5-31.1c5.3-2.9,9.7-5.5,9.7-5.9c0-0.4-3.1-6.9-6.8-14.4c-6.8-13.2-8.7-20.1-7.2-25.6
		c0.9-3.6,13-19.8,14-18.7c0.4,0.4,2.1,4.7,3.8,9.3c3.8,10.4,5.9,13.1,12.4,16.1c16.4,7.6,47.7,4,73.5-8.6
		c13-6.4,22.1-13.8,26.7-22.2c3.3-5.8,3.3-6.1,3.3-23.2c0-9.4-0.3-17.6-0.9-18c-1.4-1.4-57.4,7.7-68.2,11.1l-2.2,0.8l2.2-1.9
		c3.7-3.1,19.3-10.4,32.7-15.6c34.1-13,81.1-22.8,128.4-26.9c19.4-1.8,17-2.2-20.8-4.3c-27.8-1.4-56.5-0.4-84.1,2.9
		c-44.9,5.5-84.9,19-110.9,37.4c-4.6,3.2-8.2,5.4-8.2,4.7c0-1.6,4.3-9.7,8.1-15.1c14.5-20.9,39.5-39.3,68.2-50.2
		c8.7-3.3,7-3.3-6.7,0.2c-25.8,6.4-50.1,16.5-67.9,28c-29.1,18.9-46.7,49.6-41.8,73c2.5,11.4,8.2,21.2,16,26.9
		c5.3,3.8,4.3,4-4.5,0.7c-30.3-11.7-42.5-41.1-30.3-72.1c3-7.7,10.2-18.7,17-26.1c9.8-10.6,30.7-25.5,49-34.6
		c4.3-2.1,9-5.2,10.6-6.8c8-8.6,30.1-20.4,45.7-24.6c18.8-4.9,46.2-5.7,63.5-1.8c4,1,15,2.2,24.5,2.7c9.5,0.7,23.5,2.1,31.1,3.3
		c23.3,3.7,41.5,8.8,31.7,8.8c-6.3,0-41,7.5-43.7,9.4c-0.2,0.1,0.9,2.2,2.6,4.6l2.9,4.3l23.6,0.7c43.2,1.1,80.7,9.7,116.5,26.7
		c13.9,6.6,39,21.8,40.9,24.8C473.5,5653.5,471.9,5653.6,466.9,5653.1z M270,5835.4c-8.3-5.4-20.2-9.4-30.2-7.5
		c-0.6-0.2-1.2-0.3-2-0.3c-4.1,0-8.2,0.6-11.5,2.5l0.3-0.3l-3.6,2.5c-1.3,0.9-2.7,2.1-4,3.4c-0.4,0.4-0.8,0.8-1.2,1.2
		c-3.5,3.8-6.9,8.8-9.3,13.8c-2.8,5.7-3.1,7.8-3.1,16.9c0,9.6,0.3,11.1,3.8,18.3c2.6,5.4,5.7,9.8,9.6,13.4
		c10.1,9.6,17.9,12.3,32.4,11.7c5.2-0.2,8.3-0.5,11.2-1.3c8.1-0.9,15.5-3.6,19.6-11.2l0.7-0.6c1.4-0.5,2.7-1.6,3.5-3.5
		C295.4,5873.3,289.8,5848.4,270,5835.4z"/>
	<path class="st3" d="M193.7,5933.4c-2,5.8-6.9,11.6-12.3,14.3c-5.6,2.9-6.3,2.7-3.5-0.2c1.2-1.4,3.3-4.7,4.6-7.5
		c8.2-18-6.5-39.4-27.1-39.5c-11.9,0-18.8,5-23.3,17l-2,5.5l0.4-8.3c0.3-6.7,1-9.4,3.5-13.5c3.5-5.9,10.2-11.1,16.4-12.7
		c0.9-0.2,1.7-0.5,2.4-0.8c8.7-0.1,17.9,1.8,26.1,5.5c0.4,0.3,0.8,0.6,1.3,0.9c12.2,6.4,13.6,25.7,13.8,37.9
		C193.8,5932.3,193.7,5932.9,193.7,5933.4z"/>
</g>
</svg>
