<?xml version="1.0" encoding="utf-8"?>
<!-- Generator: Adobe Illustrator 28.0.0, SVG Export Plug-In . SVG Version: 6.00 Build 0)  -->
<svg version="1.1" id="Capa_1" xmlns="http://www.w3.org/2000/svg" xmlns:xlink="http://www.w3.org/1999/xlink" x="0px" y="0px"
	 viewBox="0 0 736 952" style="enable-background:new 0 0 736 952;" xml:space="preserve">
<g transform="translate(0.000000,952.000000) scale(0.100000,-0.100000)">
	<path d="M4242.6,8353.9c9.8-15,15.6-44,15.6-84c0-164,91.7-303,281.8-426c58.5-38,62.4-39,55.6-17c-3.9,13-13.7,56-21.5,94
		c-28.3,128,0,273,59.5,305c41,22,66.3,2,96.5-77c38-97,70.2-150,131.6-217c70.2-75,132.6-118,283.8-196
		c144.3-74,216.5-123,266.2-179c80-91,120.9-186,131.6-310l6.8-76l45.8,3c54.6,4,85.8-11,85.8-41c0-17-19.5-37-73.1-76
		c-82.9-61-110.2-94-151.1-183c-40-87-38-101,16.6-139c26.3-18,58.5-42,73.1-54l25.4-22l67.3,23c79,28,128.7,30,171.6,8l30.2-17
		l36.1,43c35.1,42,110.2,167,188.2,313c58.5,109,99.5,124,205.7,76l43.9-20l37.1,30c53.6,45,84.8,48,158,16
		c55.6-24,71.2-26,126.8-21c81.9,9,92.6-2,100.4-96c4.9-68,4.9-69,82.9-196c15.6-27,21.5-47,17.6-73c-2.9-31,0-40,24.4-58
		c33.2-25,58.5-105,59.5-184c1-84-37.1-143-141.4-222c-21.5-16-51.7-56-72.2-94c-71.2-134-121.9-212-147.2-225
		c-14.6-7-50.7-19-80-26s-94.6-26-143.3-42c-84.8-29-90.7-32-90.7-58c0-25,2.9-27,43.9-28c56.6-3,147.2-40,209.6-87
		c25.4-19,87.8-88,137.5-151c102.4-133,170.6-189,274-229c84.8-33,95.6-41,95.6-69c0-42-77-111-218.4-196
		c-181.4-110-320.8-155-456.3-148l-76.1,3v-110c0-183-35.1-332-104.3-454c-53.6-93-164.8-203-244.7-242c-75.1-37-109.2-65-109.2-89
		c0-10,17.6-53,39-96s39-86,39-94c0-30-29.3-60-59.5-60c-16.6,0-28.3-5-28.3-13c0-19,55.6-103,81.9-125c38-30,48.8-60,31.2-87
		c-39-61-160.9-54-329.6,19c-13.7,6-11.7-3,8.8-56c73.1-185,33.2-360-120.9-528c-83.9-92-180.4-167-372.5-291l-132.6-85l-7.8-70
		c-12.7-115-36.1-193-71.2-240l-32.2-43l36.1-29c19.5-16,78-53,128.7-82c168.7-97,224.3-145,271.1-235c38-73,37.1-177-1-258
		c-60.5-125-185.3-226-305.2-246c-67.3-11-353,2-429,19c-66.3,15-144.3,66-167.7,109c-10.7,20-22.4,57-26.3,83s-12.7,55-18.5,64
		c-11.7,15-14.6,14-33.2-14c-29.3-41-95.6-67-154.1-58c-65.3,9-105.3,38-134.6,98c-42.9,88-30.2,163,41.9,243
		c48.8,55,55.6,69,64.4,135c3.9,30,10.7,62,15.6,71c5.9,11,3.9,21-5.9,29c-26.3,22-34.1,72-26.3,157c3.9,46,4.9,104,2,130l-5.9,48
		l-27.3-63c-31.2-69-81.9-122-118-122c-15.6,0-29.3-11-43.9-34c-74.1-124-284.7-246-448.5-260c-29.3-2-75.1-12-101.4-20
		c-29.3-10-61.4-13-83.9-10c-31.2,5-39,3-48.8-15c-20.5-40-53.6-44-115.1-14c-74.1,35-191.1,43-266.2,18c-77-25-181.4-91-284.7-177
		c-93.6-79-157-83-252.6-18c-82.9,56-123.8,132-147.2,270c-13.7,81-64.4,210-82.9,210c-9.8,0-50.7-46-77-85
		c-10.7-16-31.2-63-46.8-103c-14.6-41-41-92-57.5-115c-55.6-75-163.8-118-327.6-132c-124.8-10-145.3,15-147.2,178
		c-1,98,1,110,27.3,169c15.6,35,56.6,97,89.7,138c34.1,41,67.3,87,75.1,103c17.6,35,25.4,120,27.3,307c2,124,5.9,161,29.3,250
		c14.6,58,35.1,150,45.8,205c9.8,55,29.3,121,41,148c12.7,26,23.4,47,22.4,47s-22.4-7-48.8-15c-59.5-19-173.6-19-225.2,0
		c-25.4,9-40,11-44.9,4c-2.9-6-13.7-45-22.4-87c-15.6-71-15.6-79-2-107c8.8-16,15.6-42,15.6-56c0-34-35.1-79-61.4-79
		c-19.5,0-24.4-14-58.5-178c-20.5-97-51.7-253-69.2-347c-34.1-182-34.1-199,7.8-296c31.2-74,34.1-144,13.7-304
		c-35.1-281-76.1-387-211.6-557c-91.7-113-110.2-128-159.9-128c-43.9,0-71.2,14-182.3,90c-97.5,67-106.3,77-143.3,150
		c-26.3,54-27.3,59-27.3,210c1,144,2.9,160,26.3,222c37.1,96,121.9,262,144.3,283c27.3,25,307.2,897,303.3,946
		c-2.9,44,20.5,104,54.6,141c17.6,19,38,72,71.2,185c26.3,87,45.8,159,44.9,161c-2,1-14.6-2-29.3-8c-55.6-21-119.9-12-198.9,29
		c-41,21-90.7,44-109.2,52c-18.5,7-53.6,26-77,41c-24.4,15-48.8,28-54.6,28s-25.4,13-43.9,28c-18.5,16-50.7,32-71.2,35
		c-21.5,3-53.6,19-72.2,34c-18.5,15-45.8,36-59.5,45c-46.8,30-51.7,37-41,58c17.6,34,92.6,62,183.3,68c111.2,6,122.9,6,194-3
		c34.1-4,61.4-5,61.4-1s-10.7,24-24.4,44c-13.7,20-24.4,43-24.4,50s-19.5,34-42.9,60s-47.8,57-53.6,70c-6.8,13-33.2,37-60.5,53
		c-26.3,17-53.6,39-60.5,48c-5.9,10-25.4,25-42.9,34c-16.6,9-40,29-50.7,44c-45.8,61-108.2,164-108.2,178c0,25,41,43,117,49
		c85.8,7,148.2-7,226.2-51c178.4-103,182.3-106,208.7-166c9.8-23,30.2-55,45.8-72c15.6-16,40-55,54.6-85s38-73,51.7-95
		s28.3-51,32.2-65s12.7-32,20.5-40c6.8-9,19.5-31,28.3-50c7.8-19,24.4-47,35.1-61c11.7-15,23.4-48,25.4-73c7.8-64,23.4-45,26.3,30
		c2,33,5.9,66,9.8,74c4.9,11-5.9,26-35.1,48c-69.2,54-90.7,94-88.7,171c1,36,2.9,140,4.9,231c3.9,197,3.9,198,130.7,346
		c47.8,55,108.2,129,135.5,165c35.1,45,63.4,71,101.4,90l53.6,28l49.7,190c57.5,216,68.3,247,95.6,279c25.4,29,75.1,29,149.2,1
		c67.3-26,101.4-60,101.4-103c0-17-21.5-107-47.8-201c-26.3-93-49.7-177-51.7-185c-2-9,6.8-16,26.3-20c15.6-3,41-13,55.6-23
		c23.4-17,28.3-17,78-2c89.7,27,140.4,44,178.4,61l38,16l-44.9,20c-53.6,24-61.4,39-41,79l14.6,31l-80.9,86
		c-86.8,93-116,143-98.5,171c10.7,18,33.2,18,190.1,6l95.6-8v59c0,32,2.9,75,5.9,94l5.9,35l-101.4,57c-163.8,92-272.1,144-369.6,179
		c-50.7,18-101.4,39-114.1,47c-22.4,15-29.3,56-11.7,67c17.6,11,1,24-80.9,66c-84.8,44-123.8,74-123.8,96c0,7,15.6,45,34.1,83
		c18.5,39,41,97,47.8,131c15.6,67,29.3,87,91.7,131c25.4,18,50.7,48,65.3,78c13.7,27,33.2,54,43.9,60c22.4,12,232.1,42,244.7,35
		c3.9-3,16.6,0,27.3,7c15.6,10,31.2,10,76.1-1c125.8-29,122.9-33,51.7,50c-35.1,40-102.4,116-149.2,169c-124.8,138-133.6,163-80,228
		c13.7,17,24.4,36,24.4,44s-27.3,47-59.5,87c-33.2,40-60.5,83-60.5,95s11.7,38,24.4,58c13.7,20,27.3,55,31.2,78c5.9,35,2,50-24.4,97
		c-30.2,54-30.2,56-19.5,123c5.9,38,10.7,101,10.7,140c0,113,35.1,171,95.6,155c14.6-4,65.3-7,114.1-6c79,1,93.6-2,160.9-33
		c40-19,87.8-40,105.3-46c17.6-7,47.8-32,68.3-55l36.1-42l39,14c21.5,8,52.7,11,70.2,8c48.8-9,108.2-88,134.6-179
		c9.8-33,18.5-42,54.6-57c23.4-10,63.4-18,87.8-18c62.4-1,83.9-22,101.4-101c7.8-36,26.3-117,41.9-180l26.3-115l110.2-85
		c61.4-47,115.1-93,119.9-102c11.7-22,26.3-23,46.8-4c55.6,51,275,138,401.7,160c65.3,11,66.3,12,122.9,80
		c76.1,93,98.5,108,163.8,114c29.3,2,53.6,6,53.6,8c0,3-11.7,22-25.4,44c-45.8,71-41.9,170,5.9,170c15.6,0,13.7,10-16.6,87
		c-43.9,109-50.7,196-15.6,201c12.7,2,44.9-13,79-37c63.4-44,85.8-52,75.1-23c-25.4,68-38,239-24.4,346c11.7,94,19.5,117,51.7,154
		C4208.4,8381.9,4224,8381.9,4242.6,8353.9z M4204.5,7918.9l16.6-112l40-16c113.1-45,261.3-188,327.6-314c50.7-97,38-96-43.9,4
		c-120.9,147-221.3,225-344.2,266c-35.1,12-83.9,32-107.3,45c-23.4,13-43.9,23-45.8,22c-1-2,14.6-46,36.1-98
		c22.4-52,41.9-103,44.9-113c2.9-11,40-35,89.7-58c80.9-39,166.7-108,166.7-136c0-8-20.5,1-52.7,22c-28.3,18-79,43-111.2,54
		c-32.2,12-80.9,30-108.2,41c-30.2,12-49.7,15-49.7,9s15.6-40,35.1-75c25.4-46,40-64,54.6-64c63.4,0,520.7-109,606.5-145
		c32.2-13,60.5-22,62.4-20c7.8,8-54.6,129-90.7,178c-43.9,59-30.2,61,27.3,3c51.7-51,86.8-118,110.2-208c10.7-38,38-95,69.2-145
		c28.3-45,51.7-86,51.7-90c0-10,119-44,126.8-36c2.9,2,4.9,59,4.9,126c0,103-3.9,132-23.4,185c-12.7,35-20.5,65-18.5,68
		c10.7,10,58.5-102,72.2-168c13.7-67,12.7-156-2-211c-3.9-13,6.8-23,49.7-42c30.2-14,58.5-23,63.4-20c3.9,3,15.6,40,25.4,82
		c19.5,87,21.5,212,3.9,288c-18.5,84-76.1,195-128.7,247c-57.5,57-50.7,62,15.6,10c149.2-116,208.7-365,141.4-589
		c-10.7-36-18.5-66-16.6-67c23.4-18,52.7-36,57.5-36c3.9,0,9.8,15,12.7,34c11.7,65,63.4,153,122.9,210c32.2,30,58.5,56,58.5,58
		s-9.8,4-20.5,5c-33.2,3-38,14-43.9,94c-17.6,222-102.4,331-358.8,465c-249.6,130-342.3,213-420.3,378c-24.4,50-43.9,97-43.9,104
		c0,23-17.6,12-29.3-18c-16.6-41-13.7-171,4.9-245c33.2-130,35.1-133,83.9-166c113.1-74,243.8-261,242.8-348l-1-36l-30.2,60
		c-40,81-113.1,174-175.5,223c-28.3,22-102.4,71-163.8,107c-61.4,37-134.6,82-160.9,101c-107.3,73-204.8,203-231.1,307l-12.7,52
		l-2.9-80C4189.9,8066.9,4195.8,7980.9,4204.5,7918.9z M1962.8,7953.9c-2.9-18-6.8-67-9.8-110c-2.9-42-10.7-96-16.6-120
		c-8.8-35-7.8-50,4.9-80c8.8-21,19.5-38,24.4-38s30.2,18,55.6,41c26.3,22,65.3,49,87.8,59c24.4,11,48.8,32,62.4,54
		c28.3,48,61.4,64,144.3,72c38,4,74.1,10,80.9,15c21.5,13-15.6,46-73.1,65c-27.3,9-65.3,26-83.9,38c-27.3,16-55.6,22-136.5,27
		c-56.6,3-110.2,6-119,7C1972.5,7984.9,1965.7,7976.9,1962.8,7953.9z M2478.6,7805.9c-32.2-12-97.5-26-145.3-30l-86.8-9l-41.9-49
		c-23.4-27-53.6-53-67.3-56c-30.2-8-30.2-15,2-70c23.4-40,28.3-43,48.8-33c18.5,8,28.3,5,60.5-17l39-28l40,38
		c85.8,82,114.1,90,158.9,47l28.3-28l-6.8,26c-8.8,36,13.7,52,94.6,66c38,6,70.2,14,72.2,16c8.8,9-52.7,135-70.2,146
		C2582,7838.9,2553.7,7834.9,2478.6,7805.9z M2621,7614.9c-35.1-6-65.3-12-66.3-13c-2-1,5.9-26,16.6-54c23.4-64,24.4-91,3.9-99
		c-11.7-4-35.1,13-79,61l-62.4,67l-29.3-18c-16.6-10-42.9-29-59.5-44l-30.2-25l47.8-31c114.1-75,215.5-115,338.4-132
		c37.1-5,95.6-24,131.6-41c65.3-31,65.3-31,79-11c6.8,12,23.4,21,37.1,21c19.5,0,23.4,4,17.6,18c-2.9,9-17.6,64-30.2,122
		c-13.7,58-27.3,113-29.3,123c-3.9,11-14.6,17-36.1,17c-32.2,0-60.5,7-128.7,34C2694.1,7628.9,2699,7627.9,2621,7614.9z
		 M1972.5,7504.9c-2.9-20-16.6-51-30.2-67c-13.7-17-24.4-33-24.4-37c0-3,22.4-33,50.7-66l49.7-59l16.6,27c17.6,29,76.1,87,116,113
		c22.4,16,23.4,16,5.9,50c-9.8,19-35.1,63-56.6,98l-38,62l-41.9-41C1991.1,7554.9,1976.4,7531.9,1972.5,7504.9z M2225.1,7424.9
		c7.8-41,23.4-103,34.1-139c10.7-35,22.4-89,25.4-120c4.9-48,2.9-60-19.5-93c-13.7-21-25.4-43-25.4-50c0-35,35.1-143,75.1-232
		c44.9-98,45.8-102,46.8-210c2-98,5.9-120,36.1-206c18.5-52,57.5-133,85.8-179l52.7-83l52.7,58l51.7,57l-23.4,27
		c-34.1,37-72.2,102-95.6,162c-17.6,46-17.6,54-4.9,74s11.7,31-14.6,116c-35.1,115-34.1,158,3.9,177c33.2,16,31.2,29-28.3,165
		c-23.4,54-42.9,104-42.9,111s8.8,21,19.5,31c29.3,27,81.9,13,214.5-55c63.4-33,120.9-60,128.7-60s22.4,9,32.2,20
		c11.7,13,30.2,20,55.6,20c47.8,0,148.2-41,196-82l38-31l46.8,23c41.9,20,87.8,66,87.8,87c0,11-53.6,53-108.2,86
		c-25.4,14-77,51-116,82l-72.2,55l-18.5-20c-20.5-24-28.3-22-123.8,22c-38,17-94.6,33-138.5,39c-144.3,18-270.1,75-403.7,181
		c-31.2,25-58.5,45-59.5,44C2211.4,7500.9,2217.3,7465.9,2225.1,7424.9z M2111,7308.9c-19.5-21-42.9-57-50.7-81
		c-7.8-23-26.3-57-40-76c-13.7-18-24.4-40-24.4-49s53.6-80,119-159c66.3-79,131.6-159,147.2-178c24.4-32,23.4-28-11.7,50
		c-61.4,136-73.1,237-34.1,282c20.5,23,14.6,96-14.6,195C2176.3,7374.9,2173.4,7375.9,2111,7308.9z M3963.7,7324.9
		c-29.3-14-116-122-143.3-176c-29.3-60-26.3-92,19.5-179c59.5-117,90.7-158,147.2-194c28.3-18,87.8-57,130.7-86
		c136.5-92,211.6-117,404.7-133c119.9-10,186.2-27,231.1-57c31.2-21,54.6-10,73.1,34c8.8,20,32.2,78,53.6,127
		c94.6,223,91.7,265-29.3,430c-60.5,82-92.6,98-285.7,147C4240.6,7319.9,4019.3,7351.9,3963.7,7324.9z M3603.9,7137.9
		c-162.8-57-365.7-166-223.3-121c85.8,28,197,49,253.5,49c41.9,0,49.7,4,81.9,40c39,44,44.9,70,16.6,70
		C3722.8,7175.9,3664.3,7158.9,3603.9,7137.9z M6379,7065.9c-2.9-6,3.9-10,16.6-10c23.4,0,141.4-113,161.9-156
		c11.7-22,5.9-60-11.7-83c-8.8-12-6.8-13,8.8-6c37.1,16,82.9,17,99.5,4c24.4-22,51.7-90,51.7-134v-39l39,39c49.7,50,50.7,81,5.9,144
		c-52.7,75-64.4,105-64.4,171v61l-56.6-7c-50.7-5-65.3-3-123.8,24c-61.4,28-69.2,29-93.6,16
		C6397.5,7081.9,6381.9,7071.9,6379,7065.9z M6114.8,6987.9c-79-147-127.7-227-177.5-289c-46.8-57-50.7-66-39-81
		c7.8-9,36.1-44,63.4-77c69.2-83,194-268,228.2-337c35.1-71,57.5-164,57.5-240c0-32,2-58,3.9-58s35.1,15,75.1,34
		c40,19,99.5,42,133.6,51c76.1,22,90.7,39,181.4,211c66.3,124,68.3,129,72.2,212l4.9,85l-51.7-6c-96.5-12-112.1,25-48.8,112
		c21.5,29,39,61,39,72c0,30-32.2,89-47.8,89c-8.8,0-51.7-28-95.6-63c-42.9-34-123.8-97-177.5-139c-88.7-70-137.5-94-137.5-69
		c0,18,44.9,66,130.7,139c92.6,78,181.4,189,181.4,226c0,13-22.4,44-57.5,79c-51.7,52-59.5,57-87.8,51c-27.3-6-35.1-3-52.7,20
		c-26.3,32-120.9,68-145.3,55C6158.6,7059.9,6134.3,7024.9,6114.8,6987.9z M2534.2,6955.9c57.5-136,62.4-203,12.7-216
		c-17.6-4-23.4-12-20.5-23c2.9-9,18.5-64,36.1-123c30.2-103,31.2-109,14.6-127c-20.5-23-16.6-40,24.4-121c36.1-72,56.6-98,65.3-84
		c3.9,5,28.3,46,55.6,89c45.8,75,47.8,82,49.7,154c2,138,62.4,226,219.4,322c37.1,23,67.3,45,67.3,50c0,12-75.1,55-129.7,73
		c-46.8,16-47.8,16-77-9c-15.6-14-39-25-51.7-25s-79,29-148.2,65c-68.3,36-131.6,65-141.4,65
		C2498.1,7045.9,2502,7029.9,2534.2,6955.9z M3708.2,6957.9c1-20,21.5-88,45.8-150c90.7-231,108.2-244,310.1-240l130.7,3l-142.4,87
		c-177.5,110-189.2,122-276.9,296c-34.1,67-38,72-52.7,58C3714.1,7001.9,3708.2,6979.9,3708.2,6957.9z M3613.6,7015.9
		c-10.7,0-72.2-129-81.9-172l-6.8-26l79-4c43.9-2,79-1,79,2s-8.8,33-20.5,65c-14.6,43-18.5,73-14.6,104c4.9,37,3.9,42-9.8,37
		C3629.2,7018.9,3618.5,7015.9,3613.6,7015.9z M3487.8,6988.9c-51.7-14-61.4-21-87.8-63c-24.4-39-62.4-139-55.6-146
		c5.9-7,129.7,29,135.5,39c3.9,7,7.8,22,7.8,34s14.6,51,33.2,87c18.5,36,32.2,66,29.3,66C3548.3,7005.9,3520,6998.9,3487.8,6988.9z
		 M3251.9,6903.9c-41-15-117-188-82.9-188c7.8,0,36.1,9,63.4,21c41,18,49.7,26,54.6,52c2.9,18,18.5,60,35.1,94l28.3,63l-36.1-16
		C3294.8,6920.9,3266.5,6909.9,3251.9,6903.9z M5007,6850.9c-2.9-44-2.9-45,22.4-40c14.6,4,47.8-3,79-15c29.3-11,60.5-18,68.3-15
		c22.4,9,78-18,122.9-59c21.5-20,43.9-36,50.7-36s33.2-13,57.5-29c42.9-28,127.7-50,127.7-33c0,10-205.7,138-302.3,187
		c-69.2,36-187.2,83-210.6,84C5015.8,6895.9,5009,6876.9,5007,6850.9z M3031.5,6777.9c-16.6-22-51.7-142-44.9-153
		c2.9-5,30.2,5,62.4,23c52.7,30,56.6,35,62.4,76c2.9,24,14.6,64,25.4,89l19.5,45l-56.6-32
		C3069.5,6807.9,3038.3,6786.9,3031.5,6777.9z M3397.2,6741.9c-194-51-451.5-189-544.1-292c-14.6-16-54.6-74-88.7-129
		c-35.1-55-93.6-134-131.6-176c-57.5-64-119.9-149-154.1-209c-4.9-8,37.1,29,92.6,83c167.7,163,382.2,295,637.7,392
		c165.8,63,278.9,89,599.7,141l32.2,5l-34.1,35c-18.5,20-50.7,70-70.2,111l-36.1,76l-104.3-6
		C3537.6,6768.9,3451.8,6755.9,3397.2,6741.9z M5025.6,6743.9c-18.5-15-34.1-64-28.3-91c2-9,20.5-26,41.9-37l38-20v20
		c0,11,8.8,42,18.5,70l18.5,50l-30.2,9C5042.1,6756.9,5044.1,6757.9,5025.6,6743.9z M2857.9,6629.9c-12.7-22-26.3-62-29.3-88
		l-6.8-48l58.5,46c58.5,45,59.5,46,63.4,103c2.9,32,8.8,67,12.7,77C2971,6754.9,2883.3,6674.9,2857.9,6629.9z M5154.3,6671.9
		c-23.4-53-23.4-59,6.8-95c31.2-39,49.7-39,57.5-1c3.9,16,17.6,46,30.2,66c13.7,20,23.4,38,21.5,39c-14.6,13-82.9,42-89.7,38
		C5176.7,6715.9,5164,6694.9,5154.3,6671.9z M1842.9,6640.9c-12.7-3-30.2-22-41.9-45c-10.7-21-39-56-63.4-77l-43.9-37l80.9-53
		c328.6-219,482.7-333,522.7-392c41-58,0-40-129.7,59c-83.9,63-498.3,350-507,350c-2,0-5.9-19-9.8-42c-3.9-24-22.4-78-41.9-121
		c-19.5-42-33.2-79-31.2-81c2-2,35.1-20,73.1-39c38-20,82.9-48,99.5-62c31.2-26,40-58,21.5-70c-22.4-14-4.9-25,89.7-55
		c61.4-20,173.6-70,287.7-130l186.2-97l11.7,45c13.7,58,67.3,167,111.2,225c19.5,26,35.1,51,35.1,56c0,4-14.6,28-33.2,52
		c-81.9,110-138.5,264-149.2,401c-6.8,92-18.5,107-92.6,119c-28.3,5-51.7,7-53.6,5s22.4-41,55.6-87c85.8-122,127.7-216,100.4-226
		c-12.7-5-48.8,41-158.9,201c-91.7,134-94.6,135-206.7,120C1905.3,6652.9,1854.6,6643.9,1842.9,6640.9z M6755.4,6602.9
		c-40-28-41.9-31-22.4-38c33.2-13,41-42,41-145v-97l24.4,23c13.7,13,36.1,48,49.7,77c24.4,51,25.4,56,13.7,115
		c-5.9,33-15.6,71-19.5,84C6831.4,6649.9,6818.8,6646.9,6755.4,6602.9z M5746.2,6598.9c-45.8-147-96.5-374-97.5-433
		c-1-109,21.5-155,132.6-278c53.6-59,121.9-137,150.2-173c29.3-37,62.4-69,73.1-72s38,1,60.5,9c104.3,38,122.9,78,123.8,254
		c0,202-23.4,263-193.1,495c-82.9,114-202.8,245-224.3,245C5765.7,6645.9,5754.9,6624.9,5746.2,6598.9z M5628.2,6614.9
		c-51.7-25-55.6-31-77-119c-8.8-36-33.2-94-53.6-130c-67.3-116-70.2-126-57.5-155c5.9-14,40-48,76.1-75c35.1-27,72.2-58,81.9-69
		c28.3-32,34.1-25,18.5,22c-22.4,63-10.7,176,38,375c30.2,124,39,172,30.2,172C5677.9,6635.9,5651.6,6625.9,5628.2,6614.9z
		 M5284,6585.9c-11.7-24-21.5-52-21.5-61c0-21,45.8-79,61.4-78c6.8,0,27.3,34,47.8,75l35.1,74l-35.1,20
		C5323,6641.9,5310.3,6637.9,5284,6585.9z M4900.8,6552.9c-17.6-43-41.9-87-54.6-97l-23.4-19l55.6-106c30.2-59,61.4-109,68.3-112
		c7.8-3,47.8,8,88.7,23c99.5,36,215.5,39,293.5,6c28.3-12,52.7-22,54.6-22s5.9,19,8.8,42c4.9,40,2.9,44-41.9,87
		c-79,77-150.2,137-180.4,152c-16.6,9-38,21-48.8,27s-45.8,19-78,28c-38,11-66.3,26-81.9,45c-13.7,16-25.4,27-26.3,26
		S4918.3,6595.9,4900.8,6552.9z M5426.3,6520.9c-43.9-82-52.7-120-33.2-150c8.8-14,19.5-25,23.4-25c23.4,0,97.5,199,82.9,223
		C5486.8,6590.9,5451.7,6567.9,5426.3,6520.9z M3717,6475.9c-469-75-844.4-248-1117.5-517c-137.5-136-215.5-262-236.9-385
		c-7.8-42-2-45,47.8-27c21.5,8,33.2,21,40,43c9.8,33,17.6,37,147.2,76c70.2,20,71.2,21,71.2,55c0,56,30.2,80,184.3,145
		c77,33,200.9,94,274,135c233,130,343.2,173,518.8,199c127.7,20,217.4,20,446.6,1c275-23,353-40,604.6-129
		c217.4-78,460.2-220,624.1-368c232.1-209,375.4-427,461.2-703c18.5-60,52.7-166,75.1-235c60.5-187,62.4-194,54.6-223
		c-4.9-20-14.6-29-35.1-34c-28.3-5-29.3-7-23.4-47c3.9-22,16.6-67,29.3-98c35.1-87,28.3-138-17.6-138c-20.5,0-32.2-23-23.4-45
		c14.6-39,166.7,85,236.9,194c52.7,81,86.8,181,106.3,311c14.6,98,15.6,131,5.9,225c-12.7,129-45.8,271-88.7,377
		c-35.1,86-60.5,118-92.6,118c-47.8,0-66.3,29-74.1,118c-8.8,99-18.5,117-152.1,262c-196,214-321.8,321-448.5,382
		c-89.7,44-178.4,45-285.7,5c-127.7-48-146.3-38-220.4,112c-24.4,50-60.5,109-79,131c-66.3,75-175.5,90-613.3,85
		C3906.2,6497.9,3828.2,6493.9,3717,6475.9z M3916.9,6141.9c0-2,27.3-24,61.4-49c33.2-25,116-98,182.3-163
		c67.3-66,143.3-134,169.7-151c98.5-67,242.8-102,283.8-69c18.5,14,16.6,15-30.2,16c-95.6,0-189.2,46-189.2,92c0,12-12.7,24-37.1,35
		c-58.5,25-86.8,50-148.2,133c-87.8,118-145.3,153-266.2,159C3928.6,6144.9,3916.9,6143.9,3916.9,6141.9z M3646.8,6129.9
		c-149.2-22-371.5-108-387.1-149c-14.6-41-4.9-112,27.3-190c17.6-44,44.9-115,59.5-158c60.5-175,193.1-258,557.8-346
		c174.5-43,246.7-49,308.1-27c84.8,31,151.1,103,167.7,181c3.9,17,22.4,65,41,108c18.5,42,31.2,85,28.3,95c-2.9,9-26.3,26-51.7,36
		c-75.1,31-147.2,84-251.6,186c-167.7,163-252.5,227-354.9,265c-19.5,8-37.1,14-39,14C3750.1,6145.9,3703.3,6138.9,3646.8,6129.9z
		 M4247.4,6017.9c81.9-85,112.1-111,144.3-120c43.9-13,65.3-40,55.6-66c-8.8-23,46.8-44,134.6-52c92.6-9,107.3-17,103.4-57
		c-4.9-48-52.7-77-129.7-77h-60.5l-6.8-41c-3.9-23-13.7-55-22.4-73c-8.8-17-25.4-64-38-104c-24.4-84-55.6-129-115.1-172
		c-47.8-33-134.6-60-195-60c-44.9,0-337.4,70-442.7,106c-155,53-277.9,134-330.6,220c-16.6,27-43.9,87-59.5,134
		c-16.6,47-41,111-55.6,143c-15.6,35-27.3,78-28.3,108c0,27-3.9,49-7.8,49s-51.7-24-107.3-54c-55.6-30-152.1-75-214.5-101
		c-119-49-134.6-59-138.5-97c-7.8-66-26.3-80-145.3-113c-47.8-13-65.3-22-65.3-35c0-27-40-56-117-85c-79-30-166.7-37-263.3-21
		l-53.6,8l74.1-78c86.8-93,100.4-115,92.6-158c-5.9-31-5.9-32,74.1-66c90.7-40,120.9-72,106.3-111c-7.8-23-5.9-28,20.5-44
		c16.6-10,85.8-41,153.1-69c159.9-67,216.5-107,330.6-233c56.6-64,141.4-142,211.6-196c64.4-50,153.1-126,196-168
		c47.8-45,122.9-103,186.2-142c58.5-37,150.2-98,202.8-138c124.8-92,292.5-192,386.1-229c103.4-41,340.3-109,553.9-161
		c141.4-34,182.3-40,195-31c54.6,41,79,39,205.7-13c94.6-39,119-42,136.5-20c16.6,21,63.4,19,124.8-5c57.5-23,70.2-20,70.2,16
		c0,32,32.2,64,64.4,64c14.6,0,64.4-18,112.1-40s105.3-44,127.7-50c51.7-12,121.9-13,128.7-2c2.9,5-10.7,24-29.3,43
		c-65.3,64-103.4,157-81.9,198c7.8,15,20.5,21,43.9,21c18.5,0,34.1,2,34.1,4s-15.6,37-34.1,77c-43.9,95-47.8,163-9.8,181
		c23.4,11,25.4,15,19.5,62c-6.8,64,9.8,100,46.8,104c14.6,2,26.3,5,26.3,8c0,2-10.7,31-23.4,63c-46.8,118-44.9,197,4.9,208
		c15.6,3,28.3,7,28.3,9c0,3-14.6,44-33.2,92c-17.6,48-55.6,162-84.8,255c-28.3,92-54.6,164-59.5,159s-12.7-35-17.6-67
		s-15.6-79-23.4-104s-21.5-85-29.3-133c-17.6-104-36.1-149-78-185c-63.4-55-127.7-66-196-34c-56.6,27-264.3,216-323.7,294
		c-105.3,140-119,245-58.5,430c45.8,136,45.8,171,2,258c-18.5,38-34.1,75-34.1,83c0,29,20.5,27,60.5-8c22.4-20,43.9-36,47.8-36
		s8.8,15,10.7,32c3.9,42,25.4,46,73.1,14c20.5-13,63.4-30,95.6-36c32.2-7,93.6-25,136.5-40l78-28l-105.3,104
		c-220.4,217-541.2,398-835.7,471c-81.9,20-224.3,41-293.5,42l-53.6,1L4247.4,6017.9z M6224,5720.9c-9.8-25-28.3-54-41.9-65
		s-23.4-22-20.5-25c2-3,31.2-9,64.4-13c62.4-9,111.2-42,123.8-83c2.9-10,25.4-26,50.7-35c60.5-24,71.2-38,71.2-90
		c0-61,11.7-79,74.1-116c30.2-17,56.6-37,59.5-45c14.6-39-45.8-44-192.1-18c-129.7,23-128.7,23-120.9-30c7.8-57-11.7-69-56.6-35
		l-30.2,23l6.8-24c2.9-13,12.7-55,20.5-94c8.8-38,20.5-73,27.3-77c22.4-15,150.2-8,225.2,12c78,21,143.3,52,264.3,123
		c71.2,42,170.6,115,170.6,126c0,3-26.3,17-58.5,29c-87.8,35-167.7,101-241.8,199c-128.7,171-175.5,214-283.8,259
		C6255.2,5775.9,6243.5,5773.9,6224,5720.9z M6034.8,5591.9c-19.5-2-36.1-9-35.1-15s2-31,2-55c2-43,2.9-45,42.9-58
		c28.3-9,48.8-25,64.4-48l23.4-35l-4.9,100c-5.9,122-11.7,139-37.1,124C6079.7,5599.9,6055.3,5592.9,6034.8,5591.9z M6175.2,5558.9
		c3.9-10,7.8-85,7.8-166l1-149l29.3-24c39-32,43.9-30,37.1,9c-9.8,61,8.8,65,206.7,41l48.8-6l-27.3,27c-35.1,34-47.8,69-40,109
		c5.9,36-4.9,49-49.7,60c-16.6,4-48.8,29-73.1,55c-49.7,54-58.5,59-111.2,60C6172.3,5575.9,6168.4,5573.9,6175.2,5558.9z
		 M5070.4,5518.9c-7.8-3-27.3,2-42.9,11c-36.1,22-36.1,8-2-26c45.8-43,71.2-51,194-58c97.5-6,128.7-12,174.5-34
		c70.2-33,174.5-139,216.5-221c42.9-81,41-48-2,44c-66.3,141-188.2,232-375.4,281c-45.8,12-96.5,30-112.1,39
		c-29.3,17-29.3,17-32.2-6C5087,5535.9,5079.2,5521.9,5070.4,5518.9z M1769.7,5507.9c-11.7-32-66.3-214-66.3-223c0-4,21.5-9,47.8-13
		c26.3-3,64.4-18,83.9-32c20.5-14,38-24,39-22c5.9,6,63.4,233,63.4,250c0,23-39,49-95.6,64
		C1789.2,5544.9,1783.4,5543.9,1769.7,5507.9z M5042.1,5392.9c0-24-17.6-93-38-153c-31.2-93-36.1-118-31.2-169
		c4.9-75,45.8-161,109.2-233c45.8-52,220.4-211,268.2-245c49.7-35,147.2-12,186.2,44c10.7,16,28.3,71,38,122
		c9.8,50,29.3,131,42.9,179l24.4,87l-34.1,87c-41,106-80,162-146.3,215c-74.1,59-135.5,79-256.5,86c-56.6,3-112.1,9-122.9,14
		C5048,5440.9,5043.1,5436.9,5042.1,5392.9z M1673.2,5180.9c-27.3-79-27.3-79,49.7-93c116-20,122.9-19,130.7,30
		c5.9,36,2.9,45-16.6,65c-27.3,28-89.7,54-122.9,50C1694.6,5230.9,1686.8,5220.9,1673.2,5180.9z M2227,5038.9
		c-28.3-15-83.9-36-123.8-47c-97.5-29-101.4-36-127.7-256c-26.3-227-22.4-291,24.4-393l35.1-79l66.3,6c36.1,3,103.4,8,150.2,12
		c89.7,6,109.2,15,119.9,52c5.9,21,4.9,23-12.7,13c-30.2-16-49.7,7-60.5,71c-4.9,32-5.9,74-2.9,94c5.9,34,3.9,37-12.7,30
		c-40-17-49.7-17-75.1,4c-35.1,28-33.2,50,7.8,118c20.5,35,39,85,48.8,130c17.6,86,42.9,142,79,171c19.5,16,26.3,31,27.3,59
		c1,20-2.9,41-8.8,45C2346,5081.9,2280.7,5066.9,2227,5038.9z M1553.3,5002.9c-13.7-9-49.7-49-80.9-89c-30.2-40-91.7-114-135.5-165
		c-92.6-107-102.4-135-94.6-265c2.9-50,0-120-6.8-166c-13.7-94-5.9-133,39-177c33.2-32,41-29,57.5,27c35.1,111,181.4,121,253.5,17
		c16.6-23,35.1-60,41.9-81c17.6-60,28.3-64,92.6-33c31.2,14,63.4,33,73.1,42c26.3,25,23.4,94-6.8,139c-35.1,53-63.4,156-63.4,230
		c0,51,2.9,64,14.6,64c18.5,0,29.3-25,48.8-121c8.8-42,25.4-96,37.1-120c20.5-43,22.4-44,74.1-47c29.3-2,55.6,0,60.5,5
		c3.9,4-5.9,37-21.5,73c-48.8,108-51.7,146-28.3,363c11.7,106,27.3,210,34.1,232c8.8,25,10.7,43,3.9,51c-4.9,6-49.7,14-99.5,18
		c-48.8,4-107.3,11-128.7,16C1661.5,5028.9,1582.5,5021.9,1553.3,5002.9z M2395.7,4945.9c-30.2-17-58.5-75-73.1-152
		c-16.6-89-24.4-111-57.5-162c-14.6-21-24.4-41-21.5-44s20.5,3,38,13c17.6,9,41,16,50.7,13c18.5-3,19.5-10,15.6-106
		c-3.9-107-2-110,41-93c35.1,14,53.6-5,65.3-68c4.9-29,23.4-78,40-107c15.6-29,40-79,51.7-110l22.4-57l13.7,44
		c23.4,74,54.6,66,106.3-27c31.2-56,54.6-68,79-38c6.8,8,25.4,22,40,30c26.3,14,31.2,13,59.5-3c35.1-21,60.5-79,70.2-157
		c6.8-54,2-52,98.5-31c42.9,10,65.3-16,57.5-65l-5.9-37l68.3-5c41.9-3,80-13,100.4-25c27.3-17,32.2-24,29.3-54c-1-19-3.9-50-4.9-69
		l-2-35h105.3c98.5,0,107.3-2,123.8-23c14.6-19,16.6-28,7.8-53c-5.9-16-7.8-33-4.9-36c3.9-3,41.9-9,86.8-14
		c105.3-11,246.7-47,274-69c21.5-18,21.5-19,4.9-67c-14.6-40-14.6-50-3.9-62c22.4-23,129.7-24,196-3c91.7,31,121.9,6,121.9-99
		c0-31,2.9-58,5.9-61c2.9-4,30.2,5,60.5,20c70.2,33,139.4,40,158,18c10.7-15,10.7-22-3.9-53c-8.8-19-14.6-38-11.7-40
		c2-3,26.3,11,53.6,30c58.5,42,119.9,57,228.2,57c93.6,0,140.4,18,193.1,75c53.6,56,81.9,38,101.4-63l6.8-34l29.3,29
		c15.6,15,36.1,40,44.9,56c16.6,28,47.8,36,67.3,16c25.4-26,91.7,121,89.7,200c-2,80-8.8,93-60.5,106l-45.8,12v-29
		c0-37-31.2-99-57.5-116c-25.4-15-25.4-15-1,39c34.1,77,23.4,129-30.2,148c-45.8,16-47.8,15-47.8-31c0-25-10.7-66-24.4-96
		c-30.2-67-121.9-167-182.3-198c-64.4-33-89.7-30-36.1,4c55.6,37,128.7,114,159.9,168c24.4,42,51.7,149,41.9,160
		c-2.9,2-18.5-3-35.1-13c-28.3-17-33.2-16-150.2,10c-141.4,32-144.3,32-144.3,9c0-35-50.7-122-94.6-162c-49.7-45-156-103-171.6-93
		c-4.9,3,5.9,14,25.4,24c61.4,33,154.1,129,179.4,187c11.7,29,22.4,58,22.4,65c0,17-168.7,63-173.6,47c-8.8-25-67.3-95-82.9-98
		c-11.7-3-7.8,10,17.6,48c18.5,29,34.1,56,34.1,61c0,7-127.7,53-130.7,47c-49.7-97-148.2-185-225.2-204c-23.4-5-16.6,2,29.3,33
		c59.5,40,112.1,95,144.3,152c17.6,30,17.6,31,0,37c-9.8,4-52.7,22-95.6,40l-78,34l-41-42c-52.7-53-68.3-41-16.6,13
		c20.5,23,33.2,43,28.3,45c-5.9,2-38,21-72.2,43l-62.4,38l-50.7-52c-47.8-50-131.6-105-131.6-86c0,5,18.5,24,41.9,44
		c40,33,101.4,113,93.6,121c-12.7,11-134.6,105-156,119c-25.4,17-26.3,17-63.4-19c-41.9-40-143.3-94-177.5-94
		c-35.1,0-24.4,13,36.1,43c30.2,16,75.1,46,99.5,68c41.9,38,42.9,39,23.4,55c-59.5,47-166.7,111-175.5,104c-5.9-4-54.6-22-108.2-39
		c-108.2-34-141.4-55-159.9-101c-15.6-38-32.2-40-23.4-2c14.6,68,68.3,111,186.2,148c44.9,15,80.9,30,80.9,34
		c0,11-104.3,109-176.5,166l-60.5,48l-49.7-27c-28.3-15-58.5-41-68.3-58c-19.5-35-30.2-32-21.5,5c7.8,32,61.4,96,80.9,96
		c21.5,0,13.7,10-63.4,85l-71.2,68l-48.8-23c-61.4-30-110.2-85-146.3-164c-24.4-55-27.3-58-28.3-30c-1,85,79,206,157,238l41,17
		l-28.3,30c-43.9,48-117,99-139.4,99c-54.6,0-147.2-74-206.7-164c-45.8-70-57.5-79-57.5-45c0,57,72.2,153,158.9,210
		c55.6,37,56.6,39,35.1,48c-108.2,42-183.3,74-203.8,86C2425,4957.9,2419.1,4958.9,2395.7,4945.9z M478.7,4622.9
		c-3.9-3,3.9-19,15.6-34c11.7-15,35.1-50,51.7-78c32.2-52,59.5-67,145.3-80c20.5-3,48.8-17,63.4-31l27.3-26l-24.4,7
		c-47.8,14-87.8,17-87.8,8c0-11,89.7-59,127.7-68c28.3-7,84.8-50,76.1-59c-2.9-4-22.4,1-41.9,9c-20.5,9-41.9,14-46.8,13
		c-16.6-6,44.9-63,101.4-96c54.6-31,82.9-58,73.1-69c-3.9-3-11.7-1-19.5,5c-18.5,16-65.3,33-65.3,23c0-23,61.4-97,110.2-132
		c59.5-44,75.1-70,25.4-44c-16.6,9-32.2,15-34.1,13c-8.8-9,79-90,120.9-112c91.7-47,98.5-44,43.9,20c-63.4,75-90.7,122-124.8,209
		c-54.6,142-84.8,194-178.4,308c-13.7,15-12.7,17,2.9,17c25.4,0,102.4-87,139.4-157c16.6-32,42.9-95,59.5-140
		c34.1-94,67.3-153,123.8-214c70.2-78,72.2-79,72.2-20c0,49-18.5,75-20.5,29c-1-17-3.9-14-10.7,12c-26.3,96-39,121-52.7,109
		c-11.7-9-13.7-6-13.7,22c0,19-11.7,59-26.3,89c-21.5,45-26.3,51-30.2,33c-4.9-31-21.5-29-21.5,3c0,75-55.6,188-77,155
		c-6.8-10-13.7,3-26.3,48c-17.6,64-62.4,128-82.9,116c-5.9-4-40,14-75.1,39c-94.6,66-156,87-243.8,83
		C515.8,4630.9,481.6,4625.9,478.7,4622.9z M2194.9,4212.9c-106.3-6-158.9-6-181.4,2c-16.6,6-32.2,9-34.1,7c-2.9-2,11.7-27,31.2-54
		c25.4-37,43.9-53,66.3-58c49.7-11,100.4-41,130.7-77c24.4-30,34.1-35,87.8-40c51.7-6,94.6-17,149.2-41c10.7-4,19.5,7,32.2,47
		c30.2,90,30.2,96-11.7,185l-39,82l-41-22C2351.9,4226.9,2317.7,4220.9,2194.9,4212.9z M1866.3,4145.9c0-40,5.9-67,22.4-100
		c20.5-38,24.4-59,24.4-140c0-86-2.9-101-31.2-162c-40-88-98.5-151-174.5-189c-57.5-29-67.3-31-140.4-27l-78,5l-8.8-31
		c-10.7-39,3.9-53,64.4-62c150.2-23,302.3,54,394.9,200c94.6,151,103.4,353,20.5,519c-22.4,45-25.4,48-58.5,45l-34.1-3
		L1866.3,4145.9z M1421.6,4185.9c-17.6-9-49.7-77-49.7-103c0-9,9.8-12,27.3-9c38,5,99.5-13,142.4-43c20.5-14,40-23,44.9-20
		c10.7,7-33.2,122-55.6,148C1500.6,4192.9,1454.8,4204.9,1421.6,4185.9z M2593.7,4023.9c-8.8-10-20.5-18-27.3-18
		c-19.5,0-45.8-72-63.4-173l-16.6-98l32.2-14c35.1-15,52.7-41,52.7-80c0-16,4.9-25,11.7-23s106.3,35,220.4,73
		c203.8,68,208.7,71,222.3,104c18.5,46,17.6,52-11.7,41c-37.1-15-87.8-12-105.3,5c-7.8,8-16.6,37-20.5,63c-8.8,70-22.4,118-39,132
		c-11.7,10-22.4,6-60.5-19c-24.4-17-53.6-31-63.4-31c-23.4,0-50.7,29-77,82l-21.5,43l-9.8-35
		C2612.2,4056.9,2601.5,4032.9,2593.7,4023.9z M2071,4003.9c28.3-190-26.3-361-158-495c-43.9-45-64.4-73-54.6-73
		c8.8,0,30.2-9,47.8-20c31.2-20,35.1-20,104.3-5c40,8,80.9,15,90.7,15c46.8,0,109.2,200,109.2,350c0,149-33.2,234-102.4,266
		C2064.2,4061.9,2063.2,4059.9,2071,4003.9z M1673.2,3988.9c-59.5-7-67.3-14-67.3-61c0-34-13.7-69-34.1-87c-6.8-5-23.4-61-38-124
		c-20.5-90-23.4-116-13.7-123c20.5-14,118-2,159.9,20c117,61,195,225,170.6,358c-16.6,88-15.6,87-74.1,53
		C1746.3,4007.9,1703.4,3992.9,1673.2,3988.9z M1344.6,3997.9c-20.5-28-7.8-37,62.4-43c37.1-3,84.8-13,105.3-23
		c71.2-31,63.4,24-8.8,62C1437.2,4028.9,1369,4030.9,1344.6,3997.9z M777.1,4010.9c20.5-25,4.9-28-65.3-10
		c-69.2,18-145.3,15-193.1-7c-23.4-11-33.2-28-16.6-28c4.9,0,29.3-17,55.6-37c43.9-36,50.7-38,116-38c72.2-1,113.1-10,113.1-25
		c0-5-12.7-7-28.3-4s-36.1,2-44.9-3c-14.6-9-9.8-13,26.3-32c32.2-15,61.4-21,113.1-21c77,0,101.4-14,41-24c-21.5-3-39-10-39-15
		c0-15,87.8-41,136.5-41c24.4,0,53.6-7,64.4-15c17.6-14,16.6-14-13.7-15c-41.9,0-39-14,6.8-30c45.8-15,118-6,148.2,19
		c21.5,18,21.5,18-40,24c-69.2,8-120.9,31-179.4,83c-21.5,19-63.4,47-93.6,61c-66.3,33-65.3,32-49.7,42c27.3,18,84.8-11,197.9-99
		c49.7-38,112.1-60,172.6-60c20.5,0,29.3,6,34.1,23c10.7,40,6.8,47-23.4,47c-40,0-130.7,34-177.5,65c-20.5,14-57.5,52-82.9,85
		c-32.2,43-51.7,60-68.3,60c-19.5,0-22.4-3-16.6-27l6.8-28l-23.4,21c-29.3,27-58.5,43-76.1,44
		C767.3,4025.9,767.3,4022.9,777.1,4010.9z M2256.3,3918.9c3.9-16,7.8-77,6.8-138c-1-123-17.6-206-62.4-297c-25.4-53-26.3-58-9.8-63
		c9.8-3,29.3-3,41.9,0c23.4,6,24.4,10,19.5,58c-3.9,46,0,61,35.1,134c42.9,86,77,123,113.1,123c19.5,0,23.4,7,32.2,68
		c4.9,37,6.8,72,4.9,79c-4.9,13-64.4,38-124.8,52C2249.5,3949.9,2248.5,3948.9,2256.3,3918.9z M1319.2,3878.9
		c-3.9-16-41.9-141-83.9-279c-42.9-138-78-254-78-258c0-3,19.5-6,42.9-6c29.3,0,63.4-11,109.2-34c37.1-19,68.3-34,69.2-33
		c1,2,19.5,79,41,172c21.5,94,53.6,225,72.2,293c26.3,99,30.2,124,20.5,133c-21.5,18-93.6,38-141.4,38
		C1329,3905.9,1325.1,3903.9,1319.2,3878.9z M2994.4,3713.9c-26.3-12-124.8-49-218.4-82l-170.6-61l-5.9-52c-3.9-28-9.8-56-12.7-62
		c-12.7-20,27.3-12,112.1,23c44.9,19,184.3,69,308.1,112c172.6,59,228.2,83,233,97c6.8,23,2.9,27-37.1,37
		C3136.8,3741.9,3044.2,3736.9,2994.4,3713.9z M2387,3669.9c-27.3-20-88.7-148-88.7-186c0-32,5.9-34,126.8-42c45.8-4,88.7-2,95.6,2
		c15.6,11,5.9,207-11.7,221c-9.8,8-39,15-83.9,20C2416.2,3684.9,2399.6,3678.9,2387,3669.9z M3134.9,3594.9
		c-43.9-18-84.8-35-88.7-39c-4.9-4,18.5-17,50.7-30c76.1-29,139.4-70,154.1-101c6.8-13,16.6-42,22.4-65c9.8-40,12.7-43,99.5-83
		c143.3-68,193.1-123,295.5-331c34.1-69,81.9-149,107.3-179c56.6-68,73.1-101,110.2-227c16.6-55,39-108,48.8-117
		c16.6-16,19.5-16,38,6c11.7,12,34.1,50,50.7,84c21.5,44,41.9,71,70.2,90c21.5,14,44.9,38,51.7,52c16.6,33,41.9,140,49.7,212
		c9.8,93,45.8,118,59.5,44c4.9-31-13.7-172-30.2-231c-10.7-34,54.6-54,194-61c138.5-6,252.6,12,334.5,53c72.2,36,84.8,65,77,166
		c-6.8,89,7.8,171,47.8,263c13.7,32,24.4,60,24.4,62c0,3-14.6-6-32.2-20c-51.7-41-114.1-57-214.5-56c-98.5,0-129.7-8-197-55
		c-25.4-18-47.8-26-68.3-24c-26.3,3-29.3,7-32.2,40c-2,20,2,47,7.8,59c10.7,19,9.8,20-11.7,14c-11.7-4-52.7-21-89.7-37
		c-54.6-25-71.2-28-89.7-19c-21.5,10-23.4,17-23.4,83c0,101-3.9,105-72.2,79c-101.4-39-218.4-23-255.5,34c-13.7,22-14.6,32-4.9,64
		c5.9,21,10.7,41,10.7,44c0,10-169.7,46-262.3,55c-98.5,10-125.8,26-113.1,67c3.9,11,8.8,31,11.7,43l5.9,24l-99.5-7
		c-108.2-8-128.7-1-141.4,51c-3.9,13-7.8,24-9.8,24C3217.7,3625.9,3179.7,3611.9,3134.9,3594.9z M5445.8,3538.9
		c-14.6-19-65.3-16-129.7,7c-77,27-88.7,17-64.4-58c15.6-47,25.4-59,75.1-93c62.4-42,94.6-48,122.9-22c23.4,21,33.2,10,21.5-24
		c-20.5-60-92.6-67-163.8-18c-19.5,14-37.1,25-39,25c-1,0-7.8-17-13.7-38c-14.6-48-84.8-161-105.3-169c-8.8-3-25.4,0-36.1,7
		c-17.6,11-22.4,9-41-15c-48.8-62-123.8-86-137.5-43c-8.8,30-18.5,10-42.9-93c-24.4-102-18.5-218,9.8-226c18.5-5,39-43,39-73
		c0-34,14.6-30,84.8,23c38,29,117,88,174.5,131c58.5,44,139.4,114,179.4,155c133.6,137,171.6,222,163.8,366c-3.9,70-9.8,93-41.9,161
		c-38,78-38,78-41.9,44C5457.5,3566.9,5451.7,3544.9,5445.8,3538.9z M2734.1,3446.9c-13.7-5-3.9-11,39-23c31.2-9,63.4-19,72.2-23
		c11.7-5,17.6,2,21.5,27c3.9,18,8.8,43,12.7,55l5.9,23l-66.3-26C2781.9,3465.9,2743.8,3450.9,2734.1,3446.9z M2937.9,3468.9
		c-6.8-16-16.6-42-19.5-59c-5.9-27-2.9-35,20.5-52c41-30,193.1-102,214.5-102c22.4,0,59.5,73,53.6,107c-4.9,35-46.8,69-121.9,102
		C2994.4,3503.9,2956.4,3504.9,2937.9,3468.9z M2643.4,3344.9c62.4-59,121.9-143,109.2-156c-2.9-3-36.1,23-73.1,59
		c-74.1,72-145.3,113-224.3,128c-54.6,10-140.4,14-148.2,5c-2.9-2,19.5-31,48.8-63c52.7-56,118-162,101.4-162c-4.9,0-41,34-80.9,76
		c-112.1,117-184.3,145-326.7,129l-65.3-7l32.2-35c38-40,240.8-228,355.9-329c43.9-38,117-91,163.8-117c51.7-30,88.7-58,95.6-73
		c5.9-13,13.7-24,16.6-24c3.9,0,42.9,77,88.7,171c86.8,181,109.2,214,152.1,225c15.6,4,36.1,16,47.8,26c10.7,11,38,24,60.5,31
		c23.4,6,41.9,14,41,17c0,3-31.2,20-69.2,39c-38,18-77,42-87.8,53c-26.3,27-155,57-284.7,67
		C2583.9,3405.9,2600.5,3384.9,2643.4,3344.9z M1820.4,3365.9c-27.3-28-37.1-56-63.4-190c-12.7-63-35.1-155-48.8-205
		c-23.4-80-25.4-102-21.5-195c2.9-63,0-135-6.8-179c-12.7-73-9.8-113,13.7-191c21.5-77,1-97-28.3-29c-18.5,41-18.5,41-30.2,18
		c-6.8-13-30.2-46-52.7-74c-61.4-75-85.8-114-79-125c9.8-16,43.9-12,88.7,10c73.1,37,122.9-3,128.7-106c3.9-63,4.9-65,48.8-95
		c23.4-16,49.7-28,56.6-25c22.4,9,70.2,85,87.8,139c25.4,80,50.7,126,99.5,179c73.1,80,29.3,87-107.3,17c-71.2-37-86.8-37-52.7,0
		c30.2,32,130.7,91,156,91c19.5,0,19.5-5-3.9,66c-45.8,135-61.4,290-38,379c21.5,83,97.5,155,161.9,155c61.4,0,276-139,382.2-247
		c50.7-52,52.7-53,75.1-38c12.7,8,23.4,20,23.4,25c0,16-31.2,41-96.5,75c-100.4,51-223.3,157-473.9,405
		C1868.2,3396.9,1857.5,3403.9,1820.4,3365.9z M1132,3266.9c-16.6-11-35.1-32-40-48l-9.8-28h99.5c95.6,0,101.4-1,150.2-33
		c49.7-31,69.2-34,69.2-8c0,22-71.2,84-126.8,110C1210,3290.9,1173,3292.9,1132,3266.9z M3225.5,3229.9c-22.4-19-49.7-29-115.1-39
		c-47.8-7-93.6-16-103.4-20c-17.6-7-23.4-25-7.8-25c22.4,0,193.1-128,258.4-193c115.1-116,148.2-213,139.4-402
		c-5.9-119-30.2-222-88.7-372l-32.2-83h27.3c64.4,0,153.1,64,228.2,165c55.6,74,73.1,89,73.1,61c0-23-36.1-104-68.3-151
		c-16.6-25-26.3-45-21.5-45s34.1,9,66.3,20c82.9,30,185.3,95,254.5,163l60.5,59l-19.5,31c-9.8,18-32.2,75-48.8,127
		c-38,119-45.8,134-106.3,206c-27.3,34-79,118-118,197c-89.7,179-131.6,226-247.7,283c-47.8,23-90.7,43-94.6,43
		C3258.7,3255.9,3242.1,3243.9,3225.5,3229.9z M1108.6,3136.9c-13.7-4-27.3-18-32.2-31c-3.9-14-66.3-203-138.5-420
		s-129.7-395-128.7-396c2.9-3,106.3,61,205.7,128c88.7,59,134.6,72,159.9,46c7.8-8,14.6-8,20.5-2c4.9,5,24.4,99,44.9,209
		c20.5,110,49.7,245,64.4,300c15.6,55,28.3,105,28.3,112C1332.9,3124.9,1188.6,3159.9,1108.6,3136.9z M2803.3,2960.9
		c-41-82-74.1-150-73.1-150c55.6-31,114.1-107,170.6-221c32.2-66,49.7-134,33.2-134c-5.9,0-26.3,30-45.8,67
		c-45.8,85-118,189-144.3,208c-25.4,18-36.1,18-58.5,1c-16.6-13-15.6-17,21.5-73c41-62,59.5-113,41-113c-5.9,0-10.7,3-10.7,8
		c0,4-23.4,34-51.7,67c-45.8,52-55.6,58-74.1,50c-20.5-10-19.5-13,39-90c124.8-167,143.3-244,118-482c-4.9-40-3.9-73,0-73
		c24.4,0,83.9,42,89.7,62c8.8,34,6.8,125-3.9,198c-20.5,129-22.4,170-11.7,170c33.2,0,70.2-151,70.2-290v-95l71.2,3
		c51.7,3,86.8-2,126.8-16c67.3-23,67.3-23,123.8,103c113.1,251,142.4,458,85.8,614c-43.9,122-315,346-407.6,339
		C2879.4,3110.9,2877.4,3107.9,2803.3,2960.9z M2113.9,2936.9c-10.7-7-8.8-10,6.8-15c31.2-10,92.6-87,132.6-166
		c19.5-38,75.1-192,122.9-342c114.1-357,133.6-462,103.4-550c-15.6-44-8.8-48,21.5-15c49.7,54,54.6,168,13.7,284
		c-15.6,43-38,116-49.7,163c-56.6,222-128.7,394-230.1,549C2174.4,2937.9,2147.1,2957.9,2113.9,2936.9z M2035,2853.9
		c0-6,9.8-8,21.5-4c12.7,3,34.1,6,48.8,6c36.1,0,34.1,14-4.9,34c-29.3,15-32.2,15-48.8-5C2042.8,2872.9,2035,2858.9,2035,2853.9z
		 M2274.8,2873.9c3.9-7,14.6-24,23.4-38c31.2-46,116-225,145.3-306c15.6-44,41.9-133,58.5-197c17.6-64,41.9-147,56.6-185
		c14.6-40,27.3-99,31.2-146l5.9-79l50.7,42c64.4,51,71.2,76,74.1,258l2,139l-48.8,99c-27.3,54-53.6,100-58.5,102
		c-5.9,2-18.5-19-28.3-46c-37.1-107-65.3-109-40-2c9.8,38,14.6,80,11.7,93c-8.8,35-99.5,134-192.1,210
		C2285.6,2883.9,2260.2,2898.9,2274.8,2873.9z M2082.7,2809.9c-60.5-14-67.3-18-67.3-40c0-13,2.9-24,6.8-23c4.9,0,45.8,8,93.6,17
		l84.8,17l-14.6,23C2167.6,2829.9,2168.5,2829.9,2082.7,2809.9z M2127.6,2722.9c-32.2-8-70.2-18-85.8-21c-29.3-7-39-46-10.7-46
		c13.7,0,113.1,14,187.2,26l31.2,5l-14.6,30c-10.7,20-20.5,28-32.2,25C2193.9,2738.9,2159.8,2730.9,2127.6,2722.9z M4788.6,2623.9
		c-94.6-52-150.2-63-325.7-62c-118,0-173.6,5-207.7,16l-45.8,16l-18.5-26c-14.6-22-18.5-53-23.4-170l-4.9-143l25.4-17
		c58.5-39,353-25,493.4,24c151.1,52,200.9,145,200.9,374v85l-23.4-35C4846.2,2665.9,4814,2638.9,4788.6,2623.9z M2139.3,2626.9
		c-58.5-11-108.2-21-111.2-25c-2.9-3-2.9-16,1-29l4.9-23l119.9,19c66.3,11,120.9,21,122.9,22c7.8,7-10.7,55-21.5,55
		C2249.5,2645.9,2196.8,2636.9,2139.3,2626.9z M2164.6,2528.9c-112.1-16-119.9-19-114.1-38c2.9-11,9.8-24,13.7-29
		c11.7-13,243.8,25,243.8,40c0,18-10.7,44-18.5,44C2286.5,2545.9,2230,2538.9,2164.6,2528.9z M2201.7,2434.9
		c-62.4-12-114.1-23-116-24c-1-1,2.9-15,9.8-30c9.8-23,16.6-26,41-21c16.6,3,68.3,11,115.1,18c88.7,13,96.5,19,80,62
		C2323.6,2459.9,2336.3,2459.9,2201.7,2434.9z M1030.6,2365.9c-29.3-21-85.8-57-125.8-80c-110.2-65-139.4-98-204.8-228
		c-81.9-167-91.7-207-86.8-366c3.9-133,13.7-168,59.5-228c23.4-30,205.7-148,229.1-148c38,0,55.6,16,136.5,119
		c121.9,155,152.1,233,187.2,484c25.4,177,24.4,213-3.9,300c-12.7,40-31.2,98-39,130c-8.8,31-18.5,57-21.5,57
		c-13.7,0-110.2-226-116-273c-5.9-49-3.9-57,45.8-147l51.7-95v-90c0-82-2.9-96-32.2-155c-64.4-132-103.4-184-155-206
		c-39-17-50.7-13-130.7,48c-93.6,70-95.6,77-82.9,248c10.7,130,33.2,178,130.7,267c41,38,84.8,75,96.5,82c15.6,8,22.4,21,22.4,42
		c0,43,32.2,129,77,210c22.4,39,40,73,40,75C1108.6,2418.9,1095.9,2410.9,1030.6,2365.9z M2254.3,2340.9
		c-135.5-26-133.6-25-110.2-58c11.7-16,19.5-16,119,3c58.5,11,107.3,21,108.2,22c6.8,8-15.6,48-26.3,48
		C2338.2,2355.9,2297.3,2348.9,2254.3,2340.9z M2267,2249.9c-87.8-17-94.6-20-89.7-39c3.9-11,7.8-21,8.8-23c2.9-3,211.6,19,217.4,23
		c7.8,6-21.5,65-31.2,61C2366.5,2269.9,2318.7,2259.9,2267,2249.9z M4614.1,2169.9c-60.5-15-117-19-250.6-19h-172.6l-5.9-55
		c-9.8-85-21.5-113-64.4-156c-51.7-51-67.3-83-67.3-140c0-39,4.9-51,33.2-80c28.3-29,40-34,77-34c57.5,0,86.8,25,123.8,104
		c26.3,58,93.6,136,117,136c15.6,0,11.7-15-23.4-74l-33.2-57l32.2-48c18.5-29,34.1-69,39-96c9.8-73,23.4-93,79-121
		c62.4-31,210.6-47,389.1-42c108.2,3,120.9,6,168.7,33c94.6,53,174.5,166,185.3,260c5.9,56-29.3,135-82.9,190
		c-22.4,22-89.7,71-150.2,110c-61.4,38-130.7,90-155,116l-43.9,45l-58.5-27C4718.4,2199.9,4657,2179.9,4614.1,2169.9z
		 M2334.3,2165.9c-142.4-21-133.6-18-133.6-52c0-29,2-30,31.2-25c17.6,3,70.2,9,117,13l85.8,6l-5.9,27c-7.8,30-12.7,41-19.5,41
		C2406.5,2175.9,2372.3,2170.9,2334.3,2165.9z M1594.2,2155.9c-36.1-22-67.3-25-96.5-10c-15.6,9-20.5,7-29.3-17
		c-10.7-28-5.9-193,5.9-213c13.7-23,243.8-1,294.5,29c12.7,7,11.7,11-7.8,25c-12.7,9-28.3,16-34.1,16c-23.4,0-41,37-45.8,98
		C1673.2,2176.9,1653.7,2192.9,1594.2,2155.9z M2214.4,2042.9c-2.9-3-2.9-15,1-27c5.9-20,10.7-21,110.2-15c122.9,8,129.7,9,123.8,30
		c-2.9,8-6.8,21-8.8,28c-2.9,11-24.4,11-112.1,1C2268,2053.9,2217.3,2045.9,2214.4,2042.9z M910.7,1956.9c-32.2-32-55.6-64-55.6-76
		c0-27,55.6-125,71.2-125c23.4,0,109.2,82,126.8,120l16.6,38l-35.1,61C993.6,2044.9,1001.4,2045.9,910.7,1956.9z M2274.8,1956.9
		c-37.1-6-37.1-6-19.5-28c17.6-20,24.4-21,106.3-15c85.8,7,87.8,7,90.7,34l2.9,27l-71.2-6C2345,1965.9,2296.3,1960.9,2274.8,1956.9z
		 M2339.2,1875.9c-39,0-34.1-13,15.6-39c39-20,58.5-18,77,7c24.4,31,15.6,45-24.4,38C2387.9,1878.9,2356.7,1875.9,2339.2,1875.9z
		 M945.8,1701.9c-43.9-10-66.3,6-103.4,72l-31.2,57l-2.9-40c-1-22-6.8-70-10.7-107c-4.9-37-6.8-76-3.9-87
		c5.9-25,114.1-111,140.4-111c59.5,0,164.8,199,164.8,311v37l-61.4-63C999.4,1731.9,965.3,1705.9,945.8,1701.9z"/>
	<path d="M4253.3,7230.9c93.6-18,355.9-82,390-95c46.8-18,90.7-57,118-106c23.4-41,25.4-52,20.5-117c-6.8-90-38-186-67.3-211
		c-32.2-27-142.4-17-315,29c-327.6,86-367.6,114-438.8,308c-31.2,86-31.2,99,5.9,142C4019.3,7241.9,4111.9,7257.9,4253.3,7230.9z
		 M4034.9,7154.9c-28.3-18-32.2-24-27.3-53c7.8-48,63.4-162,95.6-195c17.6-18,56.6-39,103.4-55c126.8-43,399.8-107,438.8-104l37.1,3
		l21.5,75c29.3,104,29.3,160-2,198c-33.2,41-79,58-292.5,108C4189.9,7182.9,4089.5,7188.9,4034.9,7154.9z"/>
	<path d="M4212.3,7028.9c-3.9-39-2-51,12.7-65c34.1-31,244.7-88,326.7-88c35.1,0,38,2,38,28c0,15-11.7,47-24.4,71
		c-26.3,46-25.4,63,1,40c23.4-20,72.2-111,72.2-136c0-30-36.1-53-84.8-53c-95.6,0-329.6,67-363.7,105c-41,45-34.1,145,9.8,145
		C4216.2,7075.9,4217.2,7070.9,4212.3,7028.9z"/>
	<path d="M5842.7,6485.9c41-17,246.7-274,283.8-355c49.7-108,19.5-296-52.7-336c-46.8-25-80.9-10-159.9,72
		c-89.7,93-151.1,181-168.7,242c-16.6,56-19.5,219-4.9,281C5755.9,6460.9,5800.8,6501.9,5842.7,6485.9z M5798.8,6304.9
		c-14.6-128-1-196,55.6-282c73.1-111,152.1-186,183.3-173c42.9,16,63.4,189,30.2,253c-17.6,37-157,220-208.7,276
		C5816.4,6424.9,5811.5,6418.9,5798.8,6304.9z"/>
	<path d="M5954.8,6192.9c0-8-8.8-36-20.5-62c-19.5-45-19.5-47-2-67c16.6-19,63.4-48,77-48c3.9,0,3.9,23,1,50c-6.8,59,4.9,66,21.5,12
		c34.1-106-30.2-132-122.9-49c-39,35-41.9,74-9.8,132C5921.7,6200.9,5954.8,6219.9,5954.8,6192.9z"/>
	<path d="M3730.6,5803.9c7.8-9,42.9-13,101.4-13c83.9,0,93.6-2,150.2-34c75.1-42,147.2-119,187.2-199c28.3-57,40-122,22.4-122
		c-3.9,0-20.5,26-36.1,57c-40,78-132.6,173-201.8,206c-74.1,36-131.6,35-224.3-2c-63.4-26-77-29-115.1-20c-76.1,18-129.7,64-97.5,84
		c4.9,3,32.2-1,60.5-10c68.3-21,76.1-19,41.9,9c-41.9,34-24.4,42,38,18c32.2-13,56.6-17,59.5-11c3.9,5,0,12-8.8,15
		c-7.8,3-16.6,12-19.5,20C3681.9,5819.9,3713.1,5820.9,3730.6,5803.9z"/>
	<path d="M4594.6,5071.9c284.7-126,329.6-169,260.4-246c-34.1-39-132.6-90-171.6-90c-103.4,0-185.3,72-222.3,192
		c-26.3,86-29.3,164-7.8,178C4476.6,5121.9,4492.2,5117.9,4594.6,5071.9z M4472.7,5043.9c0-63,8.8-78,45.8-78
		c60.5,0,105.3-72,82.9-132c-8.8-24-6.8-30,7.8-38c31.2-17,45.8-12,45.8,17c0,56,74.1,82,116,42l21.5-21l20.5,21
		c26.3,27,25.4,36-6.8,59c-25.4,19-312,160-326.7,161C4475.6,5075.9,4472.7,5060.9,4472.7,5043.9z M4523.4,4884.9
		c31.2-58,46.8-69,46.8-32s-24.4,73-49.7,73C4501,4925.9,4501,4924.9,4523.4,4884.9z M4687.2,4799.9c0-11,5.9-14,21.5-9
		c33.2,11,43.9,24,27.3,35C4718.4,4836.9,4687.2,4820.9,4687.2,4799.9z"/>
	<path d="M4089.5,4863.9c4.9-7,20.5-33,34.1-58c52.7-93,132.6-159,297.4-243c84.8-44,294.5-117,335.4-117c9.8,0,18.5-4,18.5-10
		c0-32-203.8,18-355.9,86c-57.5,26-136.5,68-174.5,94c-101.4,68-218.4,208-203.8,246C4046.6,4878.9,4076.8,4879.9,4089.5,4863.9z"/>
	<path d="M5267.4,5166.9c57.5-15,104.3-45,139.4-88c19.5-25,45.8-49,57.5-54c26.3-10,29.3-29,5.9-29c-24.4,0-3.9-16,40-30
		c32.2-11,36.1-15,23.4-24c-10.7-8-12.7-15-3.9-28c7.8-13,6.8-21-2-30c-22.4-23-96.5,27-123.8,82c-53.6,109-122.9,156-217.4,148
		c-30.2-3-63.4-9-74.1-13c-13.7-6-16.6-4-14.6,11C5104.6,5148.9,5207.9,5181.9,5267.4,5166.9z"/>
	<path d="M2456.2,3634.9c23.4-14,41.9-86,28.3-115c-11.7-26-59.5-40-87.8-24c-28.3,15-28.3,87,0,124
		C2418.2,3647.9,2429.9,3650.9,2456.2,3634.9z M2417.2,3566.9c-4.9-32,13.7-50,31.2-31c9.8,11,10.7,22,4.9,38
		C2442.5,3602.9,2421.1,3597.9,2417.2,3566.9z"/>
	<path d="M3091,3435.9c31.2-10,65.3-26,76.1-36c23.4-22,23.4-65,0-95l-17.6-23l-62.4,27c-101.4,44-125.8,63-125.8,95
		C2961.3,3459.9,2994.4,3467.9,3091,3435.9z M2992.5,3407.9c-3.9-13,142.4-88,152.1-77c2.9,3-8.8,10-25.4,16
		c-33.2,11-41.9,29-15.6,29c7.8,0,24.4-5,35.1-11c15.6-9,18.5-8,15.6,3c-3.9,14-119.9,58-143.3,55
		C3003.2,3421.9,2995.4,3414.9,2992.5,3407.9z"/>
	<path d="M3272.3,2656.9c41-42,49.7-169,14.6-218c-53.6-74-125.8-92-163.8-40c-17.6,24-20.5,43-20.5,118c0,86,1,90,30.2,120
		C3173.9,2678.9,3241.1,2688.9,3272.3,2656.9z M3153.4,2593.9c-29.3-36-14.6-168,18.5-168c24.4,0,59.5,30,72.2,61
		c13.7,32,6.8,104-11.7,127C3217.7,2631.9,3175.8,2620.9,3153.4,2593.9z"/>
</g>
</svg>
